<svg xmlns="http://www.w3.org/2000/svg" xmlns:xlink="http://www.w3.org/1999/xlink" width="591.98" height="474.14" viewBox="0 0 591.98 474.14"><defs><style>.cls-1{fill:#faed25;}.cls-2{fill:url(#radial-gradient);}</style><radialGradient id="radial-gradient" cx="378.33" cy="145.03" r="325.18" gradientUnits="userSpaceOnUse"><stop offset="0" stop-color="#b12131"/><stop offset="1" stop-color="#7b1320"/></radialGradient></defs><g id="Layer_2" data-name="Layer 2"><g id="Layer_1-2" data-name="Layer 1"><path class="cls-1" d="M561.62,429.66a3.43,3.43,0,0,1-3.42,3.44S431.13,463.71,295,463.71c-137,0-262.22-31.56-262.22-31.56a3.43,3.43,0,0,1-3.41-3.44S9.49,326,9.49,226.17c0-100.8,19-182.62,19-182.62a3.43,3.43,0,0,1,3.42-3.44S112.89,9.5,295,10.46,558.2,40.11,558.2,40.11a3.43,3.43,0,0,1,3.42,3.44s19.92,93.21,19.92,194c0,99.84-19.92,192.11-19.92,192.11M572.05,36a3.43,3.43,0,0,0-3.41-3.44S478.13,1,296,0s-273.6,32.5-273.6,32.5A3.43,3.43,0,0,0,19,36S0,135.81,0,236.6c0,99.84,19,200.65,19,200.65a3.43,3.43,0,0,0,3.42,3.44S159,474.14,296,474.14c136.08,0,272.65-33.45,272.65-33.45a3.43,3.43,0,0,0,3.41-3.44S592,336.44,592,236.6C592,135.81,572.05,36,572.05,36"/><path class="cls-2" d="M32.43,39.51s81-30.61,263.16-29.65S558.76,39.51,558.76,39.51A3.43,3.43,0,0,1,562.17,43s19.92,93.21,19.92,194c0,99.84-19.92,192.11-19.92,192.11a3.43,3.43,0,0,1-3.41,3.44s-127.08,30.61-263.17,30.61c-137,0-262.21-31.56-262.21-31.56A3.43,3.43,0,0,1,30,428.11S10,325.41,10,225.57C10,124.77,29,43,29,43a3.43,3.43,0,0,1,3.42-3.44"/><polygon class="cls-1" points="63.56 144.95 93.92 144.95 93.92 157.29 87.51 157.47 87.46 210.36 93.92 210.41 93.92 222.75 63.56 222.75 63.56 210.41 70.2 210.41 70.2 157.29 63.56 157.29 63.56 144.95"/><polygon class="cls-1" points="101.51 144.95 150.84 144.95 150.84 171.51 141.35 171.51 141.35 157.69 133.04 157.47 132.99 210.36 141.35 210.41 141.35 222.16 111 222.21 111 210.41 119.13 210.41 119.13 157.29 111 157.29 111 171.51 101.51 171.51 101.51 144.95"/><polygon class="cls-1" points="158.43 144.95 176.45 144.95 194.2 179.55 194.25 157.29 188.79 157.29 188.79 144.95 209.66 144.95 209.66 157.29 205.09 157.29 205.14 206.62 209.66 206.62 209.66 222.75 195.43 222.75 176.45 187.2 176.45 210.41 182.15 210.41 182.15 221.79 159.38 221.84 159.38 210.41 165.2 210.41 165.2 157.29 158.43 157.29 158.43 144.95"/><path class="cls-1" d="M218.2,236c-3.8,2.37-6.65,4.5-9,8.77-10.41,3.86-48.2,6.81-49.09,7.35-4.68-13.66-32.56-17.88-48.62-5.69-7.33-10-31.17-13.35-40.32,1.9-7.22-1.59-13-3.39-20.16-8.3-2.37-2.85-5.22-15.42-5.69-59.06s4.74-54.55,6.4-56.92,13-14.94,84.2-14.94,79.69,14,80.87,15.42,4.75,11.38,5.22,55.73c.47,45.06-1.26,47.36-3.79,55.74M145,264.1c-10.24,4.89-22.25-2.78-24.92-6.56s-.1-9.12,5.12-10.13a27.31,27.31,0,0,1,14.23,1.9c4.37,2.42,6.31,4.08,8.34,8A5.28,5.28,0,0,1,145,264.1m162.82,93.83c-7.46.08-16.69.32-25.14-.24,1.22-15.12,10.19-49.82,13.28-64.27,5.12-23.95,11.59-49.53,14.23-52.18s9.23-4.42,12.33-6.16a13.45,13.45,0,0,0-.95-3.8c-31.19,0-63.12,1-93,.95,1-22.56,1.9-21.58,1.9-51.94s-1.9-58.26-3.8-62.14S203.41,101,136.53,100,44.59,114.83,42,117.92,37.05,130,36.81,180.29s3,63.17,4.88,66.05,19,10.06,26.61,10.56c.48,5.18-.07,16.32,14.71,13.75,8-2.92,8.34-16.82-4.27-16.6,1.12-3.4,4.48-6.64,10-7.71S100,249,102.22,254.05c-2.34,5.13-7.78,11.76-5.46,22.06,4.92,21.76,19.92,30,35.11,41.5,6.6,6.59,9.26,9.81,12.57,19.92,1.87,34.2-45.8,35.12-60,12.34-3.74-6-8.74-25.44,1.19-28.46,6.55,21.29,22.14,9.11,23.72,4.27s1.11-12.71-4-15.66c-22.19-11.62-42.1,11.71-34.15,36.05,8.68,26.56,40.87,44,72.1,27.51,14.13-7.44,32.15-39.4,18-61.66-9.5-15-27.52-21.86-41.75-32.26-3.56-2.6-9.23-9.22-7.82-14.23,12.18,6.06,19.36,10,31.78,9.73,10.38-2.25,15.29-6.21,16.6-11.86,8-.25,39.9-6.47,46.72-7.11.95,6.64-2,20.39,16.37,25.14s24-8.1,25.61-14.24-2.52-12.53-9-12.09-12.73,2.13-13.05,15.18c-12.37-2.65-10.71-12.05-10.91-17.55,6.06-1.55,11.06-5,11.86-11.86,18.66,0,54.86-.45,56,0s5.65,4.39,6.41,5.93-22.7,105.06-24,107.2-10.83,10.43-12.33,14.94c.1.38-.85,3.32,1.51,3.53,10,.91,30.51.27,40.71.27,4.37,0,11.45.84,14.23-.95,4.79-1.91,11-26.39,9.48-28.46s-9.14,10.08-11.85,14.7"/><path class="cls-1" d="M483.83,297.69c-.1.53-.17,3-.17,3s-3.24.87-3.68,1.07a21.69,21.69,0,0,0-2.71,2.43c-.37.41-16.72,20.37-16.83,20.8s-.31,6.7-.2,7.12,17.15,30.44,17.44,30.78,2.9,1.61,4.87,2.77a5.09,5.09,0,0,1,.48,2.19,48.21,48.21,0,0,1-3.57,3.63c-10,.1-24.87,0-24.87,0a6.12,6.12,0,0,1-.92-3.25c1.94-1,3.84-1.06,4.94-3.12a5.22,5.22,0,0,0,.55-4.8c-.71-2-6.61-14.13-10.79-18.5a20.65,20.65,0,0,0-3.08.18c-2.6,3.35-2.93,11.92-3.11,17.28,3,1.66,5,3.17,5.89,6-2.23,1.59-3.85,5.58-3.85,5.58l-24.9.1-1.08-3.85s9.76-8.78,10.27-9.82c1-1.66,8.27-38.35,14.52-69.09-4.5.14-8,0-9.48-.95-1.33-.63-1.9-2.43-1.9-3.79,16.64-8.88,21.37-11.11,41.13-20.3a23.72,23.72,0,0,1,1.56,5.12l-15.18,10.44c-2.53,12.33-5.12,25.55-7.65,37.88a24.24,24.24,0,0,0,4.75,0c.25-.15,8.42-11.38,8.59-11.74a13.64,13.64,0,0,0,0-4c-.22-.51-1.43-.9-1.67-1.28s0-1.3-.2-1.91Z"/><path class="cls-1" d="M254.25,280.61c3.7,5.57-9.89,15.68-12.58,11.71-4.95-7.41,10.1-15.23,12.58-11.71"/><path class="cls-1" d="M199.22,323.3C196,337.4,191,353,192.58,355.56c2.72,3.32,6.58,6.82,6.64,8.54s-17,10.43-19,10.43-12.33-7.7-12.33-9.48,6.82-5.65,10.91-9.49c3.55-14.45,7.29-34.17,7.29-34.17l-11.56,0a6,6,0,0,0-.95-1.9c3.14-4.78,18.66-17.71,25.61-18,2.37.16,3,6.65,4.51,6.65s11.46-4.35,12.57-3.8,3.32,5.61,2.84,7.59-5.71,6.84-9.48,11.38Z"/><path class="cls-1" d="M231.48,321.41H221a15.67,15.67,0,0,1,0-4.75c9.69-4.88,17.77-13.35,22.77-14.94.88.87,3.8,2.21,5,2.85-2.95,17-7.74,33.75-10.2,51,3.38,2,7.83,6.7,7.12,8.54-.8,2.06-15.48,10.25-19,10-3-.25-12.74-7.12-12.74-8.78s7-6.87,11.38-10.91c3.33-15.57,4.91-24.68,6.17-33"/><path class="cls-1" d="M346,359.12c-6.48,1.75-8.6-2.68-8.78-2.85-.88-2.61-1.66-4.27.72-8.54,3.48-3.27,8.6-7.79,10.91-6.64-.6,5.1-2.81,10.16-2.85,18m14-1.66c.33-21.88,7.42-30.83,9-46.49-.05-9.59-10.12-11-18-10s-28.55,16.4-19.92,29.41c2.5,1.94,16.83.35,14.35-16.37,3.73-.39,9.57-3.11,9.13,7.12-.34,12.1-13,14.15-20.4,19.21-8.69,5.95-16.84,16.34-9,28,6.3,7.58,17.7,5.95,23,.47,2.88.93,4.54,1.85,5.7,4.51,4.83-.62,8.57-4.77,10.43-8.3S360,362.2,360,357.46"/><path class="cls-1" d="M509.52,359.12c-6.48,1.75-8.6-2.68-8.78-2.85-.89-2.61-1.66-4.27.72-8.54,3.48-3.27,8.6-7.79,10.91-6.64-.6,5.1-2.81,10.16-2.85,18m14-1.66c.33-21.88,7.42-30.83,9-46.49,0-9.59-10.12-11-18-10s-28.55,16.4-19.92,29.41c2.5,1.94,16.83.35,14.35-16.37,3.73-.39,9.57-3.11,9.13,7.12-.34,12.1-13,14.15-20.4,19.21-8.69,5.95-16.84,16.34-9,28,6.3,7.58,17.7,5.95,23,.47,2.88.93,4.54,1.85,5.7,4.51,4.83-.62,8.57-4.77,10.43-8.3s-4.34-2.85-4.27-7.59"/><path class="cls-1" d="M402.44,307.18c-4.92-.75,1.72-6.53-7.22-6.6-10.1,8.18-12.65,10.39-21.34,17.72a24.51,24.51,0,0,0-.07,3.14l10.76.05s-1.19,13.1-6.19,33.22c-2.68,1.74-11.12,8.14-11,10.51s11.63,8.76,14,9,17-8.52,17-10.5-5.8-6.72-6.78-8.1c-1.58-2.21,1.56-14.63,3.87-21.74s6.6-21.47,10.87-20.91,4.35,5.45,4.11,7.82-8.3,33.7-15.06,60.05c-3.08,25,9.65,31.64,22.2,32.77,16.7-1.54,20.12-14,20.59-20.48-.06-5.22-4.67-10.85-10.36-10.37s-10.47,4.68-10.57,9.68c.14,4.58,4.76,8.38,7.73,7.31.95-1,.25,3.24-6.15,3.26-7.65-.16-10-7.07-10.77-12.84a33.76,33.76,0,0,1,1.13-12.45c1.26-4,15.18-62.68,16-68.63.13-4.11-1.94-8.38-4.57-8.95-7,.08-16.42,7.35-18.16,7.06"/><path class="cls-1" d="M315.55,122.59a5.83,5.83,0,0,0-3.9,1.38,4.44,4.44,0,0,0-1.62,3.54,4.77,4.77,0,0,0,1.19,3.35,4.17,4.17,0,0,0,3.36,1.46,5.27,5.27,0,0,0,3.16-.92,2.9,2.9,0,0,0,1.27-2.48v-2.44h5.24V129q0,3.3,4.82,3.3a3.89,3.89,0,0,0,3.16-1.49,5.17,5.17,0,0,0,1.16-3.54,4.14,4.14,0,0,0-1.73-3.41,6.5,6.5,0,0,0-4-1.24Zm-9.41-5.19a5.83,5.83,0,0,1,2.6-5.46,9.51,9.51,0,0,1,5.84-1.67,20.76,20.76,0,0,1,4.16.37,5.56,5.56,0,0,1,3.08,2.22,6,6,0,0,1,3.46-2.27,15.2,15.2,0,0,1,4.76-.32,6.61,6.61,0,0,1,4.65,2.13,7.25,7.25,0,0,1,2.06,4.89h-5.63c0-1.52-1-2.27-3.24-2.27q-3.63,0-3.63,3h5q10,0,9.84,10a9.41,9.41,0,0,1-2.83,7,10.26,10.26,0,0,1-7.22,2.71q-5.79,0-7.36-3-1.79,3.13-7.35,3-4.92-.1-7.63-2.81c-1.8-1.81-2.61-4.31-2.43-7.52a6.08,6.08,0,0,1,2.49-4.81h-3.9v-4.65h16q0-3-3.89-3c-2.13,0-3.25.79-3.36,2.38Z"/><path class="cls-1" d="M352.15,101.17a15,15,0,0,1,11.84,5.6,19.47,19.47,0,0,1,4.81,13.12q0,8.49-4.27,13.14T352.69,138q-16.23.58-16.77-11.15a7.61,7.61,0,0,1,2.71-6.17,10.08,10.08,0,0,1,7-2.59H348c-.11-1.81-.9-2.71-2.38-2.71s-2.45.65-2.71,2h-5.4q.27-6.93,8.32-6.92a7.32,7.32,0,0,1,6,2.76,11.38,11.38,0,0,1,2.24,7.4c0,.76,0,1.52-.1,2.27H348a8.16,8.16,0,0,0-4.38,1,3.45,3.45,0,0,0-1.79,3.19q.06,2.92,3.68,4.33a16.77,16.77,0,0,0,7.14,1,10.47,10.47,0,0,0,7.54-3.62,12.53,12.53,0,0,0,2.95-8.6,15.16,15.16,0,0,0-3.19-9.73,10.63,10.63,0,0,0-8.71-4.22,13.19,13.19,0,0,0-5.3,1,7,7,0,0,0-3.35,2.65h-5.95q3.13-8.67,15.47-8.66"/><path class="cls-1" d="M369.74,116.86v-5.2a12.85,12.85,0,0,1,5.95-1.3,8,8,0,0,1,7.3,4.27,17.5,17.5,0,0,1,2.11,9.14,19.72,19.72,0,0,1-2.22,9.47c-1.7,3-4.06,4.53-7.08,4.6a14.48,14.48,0,0,1-6.17-1.3V131a7.45,7.45,0,0,0,4.11,1.52,3.66,3.66,0,0,0,1.3-.22c2.59-.93,3.93-3.49,4-7.68q.1-9.19-5-9.19a7.44,7.44,0,0,0-4.27,1.41"/><path class="cls-1" d="M411.65,103.45a1.72,1.72,0,0,0-.57,1.29,1.95,1.95,0,0,0,1.95,2,1.84,1.84,0,0,0,1.32-.54,1.78,1.78,0,0,0,.57-1.35,1.82,1.82,0,0,0-.57-1.33,1.84,1.84,0,0,0-1.38-.56,1.86,1.86,0,0,0-1.32.54m-4.79,1.83a3.1,3.1,0,0,1-.43-1.51,2.65,2.65,0,0,1,.38-1.35,10.59,10.59,0,0,0-2.43-.22q-9.63,0-9.95,2.22c-.07.58.72.86,2.38.86Zm14.88,15.8a24.91,24.91,0,0,1-2,11.41q-2.6,5.41-7.84,5.47a11.88,11.88,0,0,1-4.62-.63,7.29,7.29,0,0,1-2.95-2.52Q402.76,138,397.4,138a9.13,9.13,0,0,1-7.95-4c-1.69-2.46-2.47-5.86-2.32-10.23a12.08,12.08,0,0,1,3.35-8.27,11.78,11.78,0,0,1,8.92-3.63h5.25v5.29h-2.81q-7.51,0-8.44,5.85a15.65,15.65,0,0,0-.16,2.27,9.44,9.44,0,0,0,1.22,5,3.75,3.75,0,0,0,3.37,2c2.46,0,3.68-1.55,3.68-4.65v-3.08H407v3.13q0,4.6,4,4.6,2.49,0,3.84-3.84a19.71,19.71,0,0,0,.92-7.41q-.6-10.86-9.52-10.86H393.51a5,5,0,0,1-3.84-1.47,4.61,4.61,0,0,1-1.19-3.24,6.53,6.53,0,0,1,3.62-6.17q3.84-2.06,12.66-2.11a31.43,31.43,0,0,1,9.41,1.3c4,1.34,6.05,3.44,6.05,6.33a5.06,5.06,0,0,1-2.27,4.49,20.07,20.07,0,0,1,3.79,11.74"/><path class="cls-1" d="M437.37,132.16a7.54,7.54,0,0,0,3.73-1.22,4.48,4.48,0,0,0,2.11-2.89,6.55,6.55,0,0,0,.11-1.14,3.69,3.69,0,0,0-3.68-3.94,1.92,1.92,0,0,0-1.51.54,17.48,17.48,0,0,1-3.3,2.92,6.6,6.6,0,0,1-3.57,1.24,3.61,3.61,0,0,1-1.68-.38q1.41,5.14,7.79,4.87m-11.9-15.35a6.33,6.33,0,0,1,2.06-4.77,7,7,0,0,1,5-2,7.27,7.27,0,0,1,4.22,1.16,4.44,4.44,0,0,1,1.95,3.17q3.51-4.33,10.16-4.33a11.77,11.77,0,0,1,8.95,3.92,14.1,14.1,0,0,1,3.81,9.49,15.18,15.18,0,0,1-2.86,9.92,11,11,0,0,1-9.25,4.36c-.43,0-.86,0-1.3-.06v-5.18a6.82,6.82,0,0,0,5.68-2.35,8.69,8.69,0,0,0,2-6.16,10.28,10.28,0,0,0-2.16-6.3,6.41,6.41,0,0,0-5.41-2.54,8.3,8.3,0,0,0-6.38,2.93,8.25,8.25,0,0,1,5.35,3,8.83,8.83,0,0,1,2,5.92,9.84,9.84,0,0,1-3.74,8,13.51,13.51,0,0,1-8.7,2.77Q424,137.78,424,124c0-.83,0-1.69.1-2.6h4.82a2.25,2.25,0,0,0-.06.49c0,.72.45,1.07,1.35,1.07a3.94,3.94,0,0,0,1.95-.48,5.31,5.31,0,0,0,1.79-1.62,6.43,6.43,0,0,0,.7-1.46,3.57,3.57,0,0,0,.16-1.14,4.43,4.43,0,0,0-.49-2.08,1.44,1.44,0,0,0-1.29-.94c-1.52,0-2.2.92-2.06,2.75h-5.35a6.44,6.44,0,0,1-.11-1.13"/><path class="cls-1" d="M286.75,160.19a8.58,8.58,0,0,0-1.9,5.48,7.24,7.24,0,0,0,2.72,5.84,9.44,9.44,0,0,0,6.3,2c3.18,0,5.53-1,7.07-3.13a7.76,7.76,0,0,0,1.64-4.81,8.22,8.22,0,0,0-2.67-6.05,8.4,8.4,0,0,0-6.14-2.2q-4.72,0-7,2.92m1.79-7.43c1.2-.61,2.14-1.14,2.82-1.58a21.66,21.66,0,0,0,3.64-2.87,14.81,14.81,0,0,0,2.66-4.1h6.15a13.58,13.58,0,0,1-2.1,4.4,11.14,11.14,0,0,1-4.87,4.1c.27,0,.94.17,2,.41a12.28,12.28,0,0,1,7.22,4.87,13,13,0,0,1,2.41,7.73,13.79,13.79,0,0,1-1.44,6.19,12,12,0,0,1-5.58,5.48,18.38,18.38,0,0,1-14.47.49,11.25,11.25,0,0,1-4.84-3.51,13.94,13.94,0,0,1-3.13-8.6,14.64,14.64,0,0,1,.72-4.46c1.23-3.95,4.17-6.81,8.81-8.55"/><path class="cls-1" d="M309.71,153.67h16.9V157l-7.16,2.47h7.16V163l-6.55,2.56q-4.2,2-4.2,4.92a3.39,3.39,0,0,0,.9,2.33,2.81,2.81,0,0,0,2.17,1,3.41,3.41,0,0,0,2.41-.89,2.84,2.84,0,0,0,1-2.18,3.21,3.21,0,0,0-.3-1.33h5.43a13.39,13.39,0,0,1,.15,1.94,6.78,6.78,0,0,1-2.46,5.58,9.08,9.08,0,0,1-5.89,1.79c-3.18,0-5.53-.82-7.07-2.46a8.11,8.11,0,0,1-1.94-6.14q.25-5.43,7.17-7h-6.35v-3.38l6.65-2.36h-8Z"/><path class="cls-1" d="M336,165.47a3,3,0,0,0-1.44,2.61c0,1.94,1.06,3.43,3.18,4.45a16.41,16.41,0,0,0,7.27,1.39,17.3,17.3,0,0,0,7.61-1.43,4.6,4.6,0,0,0,2.95-4.1,3.18,3.18,0,0,0-1.46-2.9,6.37,6.37,0,0,0-3.56-1H339.67a6.41,6.41,0,0,0-3.69,1m17.88-6.05a1.29,1.29,0,0,0-.05-1.28c-.35-.61-1.23-.91-2.67-.91-2.22,0-3.34.85-3.38,2.55h3.59q4.39,0,6.71,1.84a8.51,8.51,0,0,1,3.33,7q0,5.22-5.07,7.93-4.41,2.41-11.43,2.41t-11.27-2.51a9,9,0,0,1-4.71-8.14,7.7,7.7,0,0,1,2.77-6.09,10.18,10.18,0,0,1,7-2.41h3.9q0-2.66-3.8-2.55-3.58.09-3.27,2.19h-5.33a5.64,5.64,0,0,1-.05-.82,5.28,5.28,0,0,1,2.71-4.71,10.81,10.81,0,0,1,5.64-1.38q4.76,0,6.86,2.56a6.24,6.24,0,0,1,2.87-2,15.8,15.8,0,0,1,4.71-.54,7.26,7.26,0,0,1,5.74,2.25,5,5,0,0,1,1.13,3.38,5.4,5.4,0,0,1-.15,1.28Z"/><path class="cls-1" d="M378.81,143.89a14.22,14.22,0,0,1,11.22,5.3,18.43,18.43,0,0,1,4.56,12.42q0,8-4,12.45t-11.21,4.66q-15.37.57-15.88-10.54a7.12,7.12,0,0,1,2.56-5.84,9.55,9.55,0,0,1,6.65-2.46h2.26c-.1-1.71-.85-2.57-2.26-2.57a2.26,2.26,0,0,0-2.56,1.85H365q.25-6.56,7.89-6.55a6.93,6.93,0,0,1,5.66,2.61,10.77,10.77,0,0,1,2.13,7c0,.72,0,1.43-.1,2.15h-5.64a7.68,7.68,0,0,0-4.15,1,3.26,3.26,0,0,0-1.69,3c0,1.84,1.2,3.21,3.48,4.09a15.93,15.93,0,0,0,6.77.93,9.9,9.9,0,0,0,7.14-3.44,11.87,11.87,0,0,0,2.79-8.14,14.34,14.34,0,0,0-3-9.22,10,10,0,0,0-8.25-4,12.73,12.73,0,0,0-5,1,6.58,6.58,0,0,0-3.17,2.51h-5.64q3-8.21,14.65-8.2"/><path class="cls-1" d="M395.47,158.75v-4.92a12.2,12.2,0,0,1,5.63-1.23,7.62,7.62,0,0,1,6.92,4.05,16.51,16.51,0,0,1,2,8.66,18.75,18.75,0,0,1-2.1,9q-2.42,4.25-6.71,4.35a13.5,13.5,0,0,1-5.85-1.23v-5.22a7.11,7.11,0,0,0,3.9,1.43,3.78,3.78,0,0,0,1.23-.2q3.69-1.33,3.79-7.28.11-8.72-4.76-8.71a7.12,7.12,0,0,0-4,1.33"/><path class="cls-1" d="M424.39,166.85c0-.07.07-1.11.2-3.13h-2.15q-4.31,0-4.92,3.85a5.61,5.61,0,0,0-.1,1,4.33,4.33,0,0,0,2,3.74,8.08,8.08,0,0,0,4.05,1.33,8.31,8.31,0,0,0,4.46-.72,3.8,3.8,0,0,0,2.2-3.48c0-1.26-.31-1.9-1-1.9-.41,0-.59.29-.56.88h-4.92c.38-.07.63-.59.77-1.54m2.87-10.46q3.38-3.78,9.32-3.79a10.93,10.93,0,0,1,8.51,3.87,14.27,14.27,0,0,1-.16,18.63q-3.8,3.89-10.4,3.43V174a8.26,8.26,0,0,0,6.05-2.15,7.66,7.66,0,0,0,2.56-5.64,9.64,9.64,0,0,0-1.69-6,6.06,6.06,0,0,0-4.66-2.74q-5.79-.41-7.07,5.12a5.47,5.47,0,0,1,4.1,1.77,6.83,6.83,0,0,1,1.85,4.48,8.11,8.11,0,0,1-3.13,7.32,13.14,13.14,0,0,1-8.25,2.51,14.69,14.69,0,0,1-8.51-2.2,8.44,8.44,0,0,1-3.89-7,11.07,11.07,0,0,1,1.23-6,8.85,8.85,0,0,1,3.05-3.07,6.46,6.46,0,0,1,4-1.13c0-1.16-.5-1.74-1.49-1.74s-1.48.45-1.48,1.33a2.24,2.24,0,0,0,.05.52H412.5a7,7,0,0,1-.1-1.08,5.35,5.35,0,0,1,1.74-4,5.93,5.93,0,0,1,4.2-1.64,5.63,5.63,0,0,1,4.87,2.36c1.16,1.67,1.68,4.07,1.54,7.17a10.81,10.81,0,0,1,2.51-5.74"/><path class="cls-1" d="M418.16,151.12q0-3.69,4.71-5.75a23.35,23.35,0,0,1,9.27-1.69,23.81,23.81,0,0,1,9.28,1.59c3,1.26,4.56,3.08,4.56,5.44a6.77,6.77,0,0,1-.46,2.31h-5.23q.36-2.42-2.56-3.64a14.24,14.24,0,0,0-5.64-1,16.72,16.72,0,0,0-5.43.76c-1.87.69-2.81,1.75-2.81,3.18a4,4,0,0,0,0,.67h-5.44a6.48,6.48,0,0,1-.3-1.9"/><path class="cls-1" d="M463.44,173.25A7.21,7.21,0,0,0,467,172.1a4.25,4.25,0,0,0,2-2.74,7,7,0,0,0,.1-1.08,3.4,3.4,0,0,0-1.85-3.33,3.47,3.47,0,0,0-1.64-.41,1.8,1.8,0,0,0-1.43.52,16.08,16.08,0,0,1-3.13,2.76,6.17,6.17,0,0,1-3.38,1.18,3.43,3.43,0,0,1-1.58-.36q1.32,4.88,7.37,4.61M452.17,158.7a6,6,0,0,1,1.95-4.5,6.63,6.63,0,0,1,4.71-1.84,6.89,6.89,0,0,1,4,1.1,4.16,4.16,0,0,1,1.84,3q3.33-4.08,9.63-4.09a11.12,11.12,0,0,1,8.48,3.72,13.26,13.26,0,0,1,3.61,9,14.38,14.38,0,0,1-2.71,9.38,10.45,10.45,0,0,1-8.76,4.13c-.41,0-.82,0-1.23,0v-4.91a6.44,6.44,0,0,0,5.38-2.23,8.23,8.23,0,0,0,1.89-5.84,9.8,9.8,0,0,0-2-6,6.05,6.05,0,0,0-5.12-2.4,7.87,7.87,0,0,0-6.05,2.78,7.78,7.78,0,0,1,5.08,2.83,8.31,8.31,0,0,1,1.89,5.6,9.31,9.31,0,0,1-3.53,7.57,12.8,12.8,0,0,1-8.25,2.62q-12.19,0-12.19-13.1c0-.79,0-1.61.1-2.46h4.56a2.68,2.68,0,0,0,0,.46c0,.68.43,1,1.28,1a3.64,3.64,0,0,0,1.84-.46,4.85,4.85,0,0,0,1.69-1.54,5.92,5.92,0,0,0,.67-1.38A3.48,3.48,0,0,0,461,160a4.23,4.23,0,0,0-.46-2,1.39,1.39,0,0,0-1.23-.89c-1.43,0-2.08.87-1.94,2.61h-5.08a6,6,0,0,1-.1-1.08"/><path class="cls-1" d="M474.2,149.12a1.13,1.13,0,0,0,.64,1,3,3,0,0,0,1.3.44q2.31.1,2.31-1.44c0-.82-.6-1.29-1.79-1.43a3,3,0,0,0-1.7.28,1.23,1.23,0,0,0-.76,1.15m-17.78,3.59a7.21,7.21,0,0,1-.2-1.69q0-4.11,4.86-6.31a22.07,22.07,0,0,1,9.38-1.74q13,.1,13.11,5.74a4.66,4.66,0,0,1-2,4A8.47,8.47,0,0,1,477,154.2a11,11,0,0,1-4.61-.72,4.42,4.42,0,0,1-3-2.87,2.59,2.59,0,0,1,.57-2.82c-.62,0-1.66.07-3.13.21q-5,.76-5,4a5.81,5.81,0,0,0,.05.72Z"/><path class="cls-1" d="M251.77,200.66h4.78v-1.83H245v5h-.2a3.42,3.42,0,0,0-2.18.71,2.43,2.43,0,0,0-.95,2,4,4,0,0,0,1,2.8,4.48,4.48,0,0,0,2.83,1.37l.43.05h.5a6.9,6.9,0,0,0,3.32-.75,3.61,3.61,0,0,0,2-3.39v-1h1.88v5.1h3v-5.1h1.25v-1.83h-6.11Zm-7.91,7.25a2.39,2.39,0,0,1-.33-1.26.92.92,0,0,1,.25-.69,1.29,1.29,0,0,1,.87-.25h4.14v.78a2.17,2.17,0,0,1-.79,1.76,2.91,2.91,0,0,1-2.64.62A2.12,2.12,0,0,1,243.86,207.91Zm3.08-4v-3.22h1.85v3.22Z"/><path class="cls-1" d="M272.55,209h-5V198.83h-3v8.36c0,1.55-.67,1.76-1.33,1.76-.21,0-.37-.06-.48-.39a5.25,5.25,0,0,1-.11-1.37v-8.36h-3V207c0,3.13,1.72,3.79,3.16,3.79a3.37,3.37,0,0,0,2.09-.62L265,210v.75h10.53V198.83h-3Z"/><polygon class="cls-1" points="277.89 210.75 279.82 210.75 279.82 200.66 283.85 200.66 283.85 210.75 286.83 210.75 286.83 200.66 290.2 200.66 290.2 198.83 277.89 198.83 277.89 210.75"/><path class="cls-1" d="M303.77,191.94a4.77,4.77,0,0,0-4,1.7,4.13,4.13,0,0,0-.87,2.56,3.89,3.89,0,0,0,.92,2.63h-5.46v5h-.19a3.32,3.32,0,0,0-2.19.72,2.45,2.45,0,0,0-.91,2,4,4,0,0,0,1.05,2.8,4.43,4.43,0,0,0,2.8,1.37l.42.05h.51a6.9,6.9,0,0,0,3.32-.75,3.61,3.61,0,0,0,2-3.39v-1H302a1.21,1.21,0,0,1,1.13.78,2.67,2.67,0,0,1,.37,1.35,4.54,4.54,0,0,1-.16,1.34,3.19,3.19,0,0,1-.5,1,3.38,3.38,0,0,1-3,1.41h-5.4a3.35,3.35,0,0,0-2.35.89,3.16,3.16,0,0,0-1,2.41,2,2,0,0,0,.47,1.36,1.66,1.66,0,0,0,1.31.58,1.78,1.78,0,0,0,1.23-.5,1.52,1.52,0,0,0,.54-1.14,1.83,1.83,0,0,0-.41-1.17,1.51,1.51,0,0,0-.72-.48.8.8,0,0,1,.26-.09,5,5,0,0,1,.6,0h5.33a8.58,8.58,0,0,0,4.14-1,4.84,4.84,0,0,0,2-1.78,5.67,5.67,0,0,0,.58-2.8,3.75,3.75,0,0,0-1.19-2.78,4.18,4.18,0,0,0-3-1.15h-1.17v-3.22H304l.32,0,.55.06V199.2h0v-.37H303a5,5,0,0,1-.59-.2,2.4,2.4,0,0,1-1.75-2.25,2,2,0,0,1,1.35-2.1,3.4,3.4,0,0,1,.49-.13,3.81,3.81,0,0,0-.29,1.49,3.36,3.36,0,0,0,.62,2,2.86,2.86,0,0,0,2.12,1h.26a3.63,3.63,0,0,0,2.09-.62,2.66,2.66,0,0,0,1.17-2.32,3.74,3.74,0,0,0-.74-2.38C307,192.43,305.65,191.94,303.77,191.94Zm.57,4.7a1.88,1.88,0,0,1-.24-1,2.07,2.07,0,0,1,.25-1,.52.52,0,0,1,.5-.3c.09,0,.27,0,.46.37a2.23,2.23,0,0,1,.19,1,2.08,2.08,0,0,1-.23,1,.5.5,0,0,1-.5.28A.46.46,0,0,1,304.34,196.64Zm-11.18,11.24a2.45,2.45,0,0,1-.33-1.29c0-.42.09-.88,1.15-.88h4.12v.78a2.16,2.16,0,0,1-.78,1.76,2.91,2.91,0,0,1-2.64.62A2.13,2.13,0,0,1,293.16,207.88Zm3.1-4v-3.22h1.84v3.22Z"/><path class="cls-1" d="M325.22,198.86a4.19,4.19,0,0,0-1.2.27,5.07,5.07,0,0,0-1.47.94,6.43,6.43,0,0,0-2.18-.94,13,13,0,0,0-3.06-.35,7.84,7.84,0,0,0-5,1.76,6.49,6.49,0,0,0-2.54,4.39,5.93,5.93,0,0,0,0,.7,5.39,5.39,0,0,0,1.27,3.56,4.14,4.14,0,0,0,3.32,1.56,4.32,4.32,0,0,0,3.15-1.07,3.7,3.7,0,0,0,1-2.7,3.66,3.66,0,0,0-.8-2.3,3.16,3.16,0,0,0-2.58-1.23c-.24,0-.42,0-.54,0a3,3,0,0,0-2.13,1.34,3.55,3.55,0,0,0-.62,2c0,.14,0,.27,0,.39a4.7,4.7,0,0,1-.28-1.68,4.25,4.25,0,0,1,1.62-3.35,6.24,6.24,0,0,1,6.35-1,5.58,5.58,0,0,1,1.42.64,7.64,7.64,0,0,0-.91,1.46,6.74,6.74,0,0,0-.83,3,5.76,5.76,0,0,0,.8,3.31,2.72,2.72,0,0,0,2.34,1.22,3.29,3.29,0,0,0,3.06-1.6A6.27,6.27,0,0,0,326,206a6.33,6.33,0,0,0-.89-3.11,7.16,7.16,0,0,0-1.22-1.62,2.33,2.33,0,0,1,.55-.39,3.33,3.33,0,0,1,1-.27h2.23v10.14h3V200.61h3v-1.83h-7.06A13,13,0,0,0,325.22,198.86Zm-4.17,7a6.77,6.77,0,0,1,.53-1.51,6.86,6.86,0,0,1,.55-1.1,5.32,5.32,0,0,1,.51,1A4.86,4.86,0,0,1,323,206a6.07,6.07,0,0,1-.22,1.87c-.23.71-.59.71-.74.71a.74.74,0,0,1-.74-.47,3.88,3.88,0,0,1-.31-1.61A5.58,5.58,0,0,1,321.05,205.83Zm-7.07-.18a.61.61,0,0,1,.56-.37c.11,0,.35,0,.59.5a2.87,2.87,0,0,1,.24,1.23,2.92,2.92,0,0,1-.32,1.38c-.2.41-.42.46-.59.46s-.38,0-.63-.56a2.9,2.9,0,0,1-.25-1.4A3.42,3.42,0,0,1,314,205.65Z"/><path class="cls-1" d="M357.33,191.58a8.47,8.47,0,0,0-6.57,2.81,10.54,10.54,0,0,0-2.51,7.31,9.2,9.2,0,0,0,2.36,6.52,7.79,7.79,0,0,0,5.93,2.53,6.61,6.61,0,0,0,4.1-1.27,4.69,4.69,0,0,0,1.89-3.91,4.25,4.25,0,0,0-.81-2.61,3.91,3.91,0,0,0-3.33-1.48,3.33,3.33,0,0,0-2.36,1.08,4.2,4.2,0,0,0-1.27,3.12,5.37,5.37,0,0,0,.6,2.51,3.65,3.65,0,0,0,.57.84,6.31,6.31,0,0,1-1.77-.47,6.12,6.12,0,0,1-2.09-1.37,6.22,6.22,0,0,1-1.38-2.36,8.67,8.67,0,0,1-.53-3,8.11,8.11,0,0,1,1.61-5.29,6.48,6.48,0,0,1,5.37-2.21,6.24,6.24,0,0,1,5.12,2.11,8.06,8.06,0,0,1,1.63,5.33v8.95h1.93v-9.48a10.24,10.24,0,0,0-2.33-7A7.85,7.85,0,0,0,357.33,191.58Zm.85,12.24a1.1,1.1,0,0,1,1,.57,2.67,2.67,0,0,1,.45,1.53,2.47,2.47,0,0,1-.39,1.4,3.78,3.78,0,0,1-.8.88l-.4.24a2.46,2.46,0,0,1-.75-.62,3.28,3.28,0,0,1-.59-2.08,2,2,0,0,1,.55-1.51A1.29,1.29,0,0,1,358.18,203.82Z"/><path class="cls-1" d="M379,203.88h-1.17v-3.22h3.72v-1.83H371.06v5h-.19a3.3,3.3,0,0,0-2.19.72,2.45,2.45,0,0,0-.91,2,4,4,0,0,0,1.05,2.8,4.43,4.43,0,0,0,2.8,1.37l.42.05h.51a6.9,6.9,0,0,0,3.32-.75,3.61,3.61,0,0,0,2-3.39v-1h.91a1.21,1.21,0,0,1,1.13.78,2.67,2.67,0,0,1,.37,1.35,4.9,4.9,0,0,1-.15,1.34,3.49,3.49,0,0,1-3.5,2.4h-5.4a3.28,3.28,0,0,0-2.34.89,3.13,3.13,0,0,0-1,2.41,2,2,0,0,0,.47,1.36,1.66,1.66,0,0,0,1.31.58,1.78,1.78,0,0,0,1.23-.5,1.52,1.52,0,0,0,.54-1.14A1.79,1.79,0,0,0,371,214a1.42,1.42,0,0,0-.72-.48.86.86,0,0,1,.27-.09,4.91,4.91,0,0,1,.59,0h5.34a8.58,8.58,0,0,0,4.14-1,4.91,4.91,0,0,0,2-1.78,5.64,5.64,0,0,0,.58-2.8A3.77,3.77,0,0,0,382,205,4.18,4.18,0,0,0,379,203.88Zm-9.1,4a2.45,2.45,0,0,1-.33-1.29c0-.42.09-.88,1.15-.88h4.12v.78a2.19,2.19,0,0,1-.78,1.76,2.93,2.93,0,0,1-2.64.62A2.13,2.13,0,0,1,369.9,207.88Zm3.09-4v-3.22h1.85v3.22Z"/><polygon class="cls-1" points="385.31 210.75 387.24 210.75 387.24 200.66 391.26 200.66 391.26 210.75 394.25 210.75 394.25 200.66 397.62 200.66 397.62 198.83 385.31 198.83 385.31 210.75"/><path class="cls-1" d="M414.71,198.78a5.65,5.65,0,0,0-2.71.65,3.84,3.84,0,0,0-.86.6,6.6,6.6,0,0,0-2.17-.91,13.19,13.19,0,0,0-3-.34,7.86,7.86,0,0,0-5,1.76,6.57,6.57,0,0,0-2.54,4.4c0,.15,0,.39,0,.69a5.34,5.34,0,0,0,1.27,3.56,4.14,4.14,0,0,0,3.32,1.56,4.28,4.28,0,0,0,3.14-1.07,3.65,3.65,0,0,0,1-2.7,3.58,3.58,0,0,0-.8-2.3,3.14,3.14,0,0,0-2.57-1.23c-.24,0-.43,0-.55,0a3,3,0,0,0-2.12,1.34,3.55,3.55,0,0,0-.62,2c0,.13,0,.26,0,.38a4.77,4.77,0,0,1-.28-1.7,4.29,4.29,0,0,1,1.62-3.37,6.27,6.27,0,0,1,6.32-1,5,5,0,0,1,1.4.65,8.74,8.74,0,0,0-1.66,4.45,6.08,6.08,0,0,0,.76,3.25,2.61,2.61,0,0,0,2.29,1.31,3.4,3.4,0,0,0,3.17-1.57,6.09,6.09,0,0,0,.68-3.12,6.36,6.36,0,0,0-.94-3.18,7.94,7.94,0,0,0-1.26-1.65,2,2,0,0,1,.31-.2,3.69,3.69,0,0,1,1.71-.34A2.73,2.73,0,0,1,417,202.1a4.7,4.7,0,0,1,.78,2.58,10.73,10.73,0,0,1-.41,3.14,4.18,4.18,0,0,1-.79,1.43l-.3.38,1.45,1.25.32-.21a5.92,5.92,0,0,0,1.39-1.2,7.6,7.6,0,0,0,1.38-4.76,5.54,5.54,0,0,0-1.84-4.26A6.1,6.1,0,0,0,414.71,198.78Zm-4.93,7a7.92,7.92,0,0,1,.45-1.41,6.66,6.66,0,0,1,.62-1.24,6.69,6.69,0,0,1,.49,1,5.63,5.63,0,0,1,.41,2,6.21,6.21,0,0,1-.22,1.84c-.2.61-.49.69-.75.69s-.51-.06-.77-.61a3.81,3.81,0,0,1-.27-1.55A6.75,6.75,0,0,1,409.78,205.76Zm-7.13-.11a.61.61,0,0,1,.56-.37c.11,0,.35,0,.58.5A2.76,2.76,0,0,1,404,207a3,3,0,0,1-.32,1.37c-.21.42-.42.47-.59.47s-.39,0-.63-.56a2.79,2.79,0,0,1-.25-1.4A3.18,3.18,0,0,1,402.65,205.65Z"/><path class="cls-1" d="M438.55,198.31a1.54,1.54,0,0,0-1.7.27,1.36,1.36,0,0,0-.41,1,1.73,1.73,0,0,0,.54,1.23,11.68,11.68,0,0,1,1.53,1.84,4,4,0,0,1,.72,2.1,5.25,5.25,0,0,1-.76,3,2.82,2.82,0,0,1-2.53,1.17,1.1,1.1,0,0,1-.84-.35,2.12,2.12,0,0,1-.44-1.47v-3.31a4.5,4.5,0,0,0-1.59-3.63,6.12,6.12,0,0,0-4.12-1.32,6.49,6.49,0,0,0-4.58,1.88,6,6,0,0,0-2,4.55,6.33,6.33,0,0,0,1.07,3.74,4.09,4.09,0,0,0,3.52,1.78,3.64,3.64,0,0,0,2.79-1.09,3.84,3.84,0,0,0,1-2.73,3.69,3.69,0,0,0-.65-2.17,3.18,3.18,0,0,0-2.81-1.34,2.81,2.81,0,0,0-2.24,1,3.39,3.39,0,0,0-.81,1.87,7.56,7.56,0,0,1-.09-1.11,4.25,4.25,0,0,1,1.36-3.16,4.55,4.55,0,0,1,3.36-1.34,3,3,0,0,1,2,.63,2.65,2.65,0,0,1,.83,2.15v3.63a3.24,3.24,0,0,0,1.25,2.74,4.89,4.89,0,0,0,3.05.9,4.61,4.61,0,0,0,4-1.86,7.21,7.21,0,0,0,1.08-4.23,12.43,12.43,0,0,0-.56-3.81A3.64,3.64,0,0,0,438.55,198.31Zm-11.06,9.92c-.2.37-.41.41-.57.41s-.3,0-.54-.41a2.5,2.5,0,0,1-.32-1.3,2.44,2.44,0,0,1,.3-1.25.65.65,0,0,1,.59-.38c.12,0,.3,0,.53.36a2.42,2.42,0,0,1,.31,1.35A2.56,2.56,0,0,1,427.49,208.23Z"/><path class="cls-1" d="M451.15,197.89a1.93,1.93,0,0,0,1.5-.69,2.27,2.27,0,0,0,.59-1.57,2.53,2.53,0,0,0-.53-1.61,2,2,0,0,0-1.59-.72,1.91,1.91,0,0,0-1.54.73,2.41,2.41,0,0,0-.55,1.58,2.36,2.36,0,0,0,.55,1.58A2,2,0,0,0,451.15,197.89Z"/><path class="cls-1" d="M454.39,203.88h-1.71v-3.22h3.69v-1.83H445.91v5h-.19a3.27,3.27,0,0,0-2.18.72,2.43,2.43,0,0,0-.92,2,4,4,0,0,0,1.05,2.8,4.45,4.45,0,0,0,2.8,1.37l.43.05h.5a6.9,6.9,0,0,0,3.32-.75,3.61,3.61,0,0,0,2-3.39v-1h.81c.14,0,.31,0,.44.38a2.85,2.85,0,0,1,.15,1c0,1.13-.21,1.48-.3,1.58a1.7,1.7,0,0,1-1.2.31h-.5v1.83h.5a6.89,6.89,0,0,0,2.91-.45,3.06,3.06,0,0,0,1.61-3.05,4,4,0,0,0-.66-2.47A2.39,2.39,0,0,0,454.39,203.88Zm-9.64,4a2.49,2.49,0,0,1-.33-1.3c0-.43.09-.9,1.15-.9h4.12v.79a2.19,2.19,0,0,1-.78,1.78,2.91,2.91,0,0,1-2.63.63A2.1,2.1,0,0,1,444.75,207.91Zm3.1-4v-3.22h1.84v3.22Z"/><path class="cls-1" d="M470.56,203.88h-1.71v-3.22h3.69v-1.83H462.09v5h-.19a3.3,3.3,0,0,0-2.19.72,2.42,2.42,0,0,0-.91,2,4,4,0,0,0,1.05,2.8,4.4,4.4,0,0,0,2.79,1.37l.43.05h.5a6.84,6.84,0,0,0,3.32-.75,3.59,3.59,0,0,0,2-3.39v-1h.81c.14,0,.31,0,.44.38a2.83,2.83,0,0,1,.16,1c0,1.13-.22,1.48-.31,1.58a1.66,1.66,0,0,1-1.2.31h-.5v1.83h.5a6.89,6.89,0,0,0,2.91-.45,3.07,3.07,0,0,0,1.61-3.05,4,4,0,0,0-.66-2.47A2.38,2.38,0,0,0,470.56,203.88Zm-9.63,4a2.4,2.4,0,0,1-.33-1.3c0-.43.09-.9,1.14-.9h4.13v.79a2.22,2.22,0,0,1-.78,1.78,2.93,2.93,0,0,1-2.64.63A2.06,2.06,0,0,1,460.93,207.91Zm3.09-4v-3.22h1.85v3.22Z"/><polygon class="cls-1" points="475.54 210.75 477.47 210.75 477.47 200.66 481.5 200.66 481.5 210.75 484.49 210.75 484.49 200.66 487.86 200.66 487.86 198.83 475.54 198.83 475.54 210.75"/><polygon class="cls-1" points="492.28 198.84 489.29 198.84 489.29 210.75 509.36 210.75 509.36 208.92 492.28 208.92 492.28 198.84"/><path class="cls-1" d="M498.32,197.89a2,2,0,0,0,1.5-.69,2.27,2.27,0,0,0,.59-1.57,2.52,2.52,0,0,0-.53-1.61,2,2,0,0,0-1.59-.72,1.91,1.91,0,0,0-1.54.73,2.41,2.41,0,0,0-.55,1.58,2.37,2.37,0,0,0,.56,1.58A2,2,0,0,0,498.32,197.89Z"/><path class="cls-1" d="M527.58,194.5c-.89-1.87-2.71-2.82-5.42-2.82a5.89,5.89,0,0,0-4.1,1.37,5,5,0,0,0-1.53,3.89,3,3,0,0,0,.66,1.89h-3.4v5h-.19a3.3,3.3,0,0,0-2.19.72,2.42,2.42,0,0,0-.91,2,4,4,0,0,0,1,2.8,4.45,4.45,0,0,0,2.8,1.37l.43.05h.5a6.87,6.87,0,0,0,3.32-.75,3.61,3.61,0,0,0,2-3.39v-1h3.73v-1.83h-3.73v-3.22h3.73v-1.83H521.1a7.64,7.64,0,0,1-1.2-.33c-1.32-.55-1.47-1.28-1.47-1.77a1.82,1.82,0,0,1,1-1.48,4.71,4.71,0,0,1,2.66-.71c1.71,0,2.84.55,3.46,1.68a6.92,6.92,0,0,1,.58,3.19v11.34h2.2V199.46A12.34,12.34,0,0,0,527.58,194.5Zm-15,13.38a2.45,2.45,0,0,1-.33-1.29c0-.42.09-.88,1.14-.88h4.13v.78a2.19,2.19,0,0,1-.78,1.76,2.94,2.94,0,0,1-2.64.62A2.11,2.11,0,0,1,512.63,207.88Zm4.94-7.22v3.22h-1.85v-3.22Z"/></g></g></svg>